<?xml version="1.0" standalone="no"?>
<!DOCTYPE svg PUBLIC "-//W3C//DTD SVG 20010904//EN"
 "http://www.w3.org/TR/2001/REC-SVG-20010904/DTD/svg10.dtd">
<svg version="1.0" xmlns="http://www.w3.org/2000/svg"
 width="425.000000pt" height="564.000000pt" viewBox="0 0 425.000000 564.000000"
 preserveAspectRatio="xMidYMid meet">

<g transform="translate(0.000000,564.000000) scale(0.100000,-0.100000)"
fill="#000000" stroke="none">
<path d="M788 5630 c-93 -11 -167 -35 -273 -84 -212 -100 -362 -278 -444 -523
-50 -152 -64 -255 -64 -468 0 -294 31 -443 187 -900 181 -527 431 -1503 742
-2895 61 -275 69 -300 124 -385 121 -186 363 -328 585 -342 118 -7 189 12 250
68 98 90 101 206 25 804 -52 407 -59 590 -25 703 23 75 35 82 140 82 79 0 96
-3 119 -21 35 -28 63 -84 87 -177 36 -141 42 -251 43 -767 2 -551 3 -564 62
-634 54 -62 113 -86 214 -86 188 1 383 109 512 283 73 99 96 163 153 439 219
1049 585 2366 805 2893 164 394 213 602 214 910 0 244 -30 390 -115 564 -148
300 -436 464 -814 464 -197 0 -332 -26 -720 -140 -328 -96 -418 -110 -538 -85
-45 9 -156 44 -247 78 -300 112 -475 169 -593 194 -129 27 -322 39 -429 25z
m362 -105 c47 -9 126 -27 175 -41 95 -27 494 -172 509 -184 13 -12 -154 -25
-319 -25 -158 1 -186 7 -246 56 -59 47 -97 -30 -41 -84 92 -88 271 -95 840
-32 241 27 281 35 602 130 342 100 533 133 713 121 349 -24 598 -206 709 -520
55 -154 77 -361 58 -551 -23 -241 -77 -435 -202 -735 -141 -337 -304 -859
-496 -1590 -137 -521 -261 -1043 -326 -1375 -43 -218 -83 -309 -177 -410 -160
-171 -400 -243 -514 -153 -60 47 -59 44 -60 613 -2 566 -9 669 -61 823 -57
170 -110 210 -282 213 -83 2 -106 -1 -134 -18 -69 -40 -104 -127 -114 -283 -8
-114 4 -258 57 -678 42 -339 50 -526 25 -585 -31 -73 -99 -103 -215 -94 -153
11 -315 90 -437 211 -108 108 -120 141 -213 556 -299 1334 -539 2259 -741
2860 -107 319 -142 463 -160 665 -38 407 82 780 307 957 60 47 188 115 258
138 124 41 315 46 485 15z"/>
<path d="M1753 4832 c-57 -52 -68 -86 -68 -202 0 -97 2 -109 28 -152 31 -53
69 -78 118 -78 70 0 139 115 139 230 0 122 -69 230 -148 230 -30 0 -47 -7 -69
-28z"/>
<path d="M2392 4835 c-75 -63 -99 -229 -49 -338 68 -148 206 -122 252 47 30
110 5 228 -61 286 -45 39 -99 41 -142 5z"/>
<path d="M2063 4469 c-55 -27 -94 -77 -143 -182 -44 -94 -49 -117 -22 -117 13
0 31 28 64 98 59 125 106 172 174 172 25 0 58 -7 73 -15 43 -21 108 -101 138
-167 27 -57 48 -73 59 -43 8 21 -36 111 -84 171 -46 58 -126 104 -181 104 -20
0 -55 -9 -78 -21z"/>
<path d="M1132 4007 c-91 -29 -232 -231 -182 -262 5 -3 23 24 39 60 16 36 37
68 45 71 8 3 41 -12 74 -35 57 -38 60 -42 66 -93 12 -91 85 -410 130 -570 195
-682 459 -1054 763 -1075 143 -10 257 34 373 144 217 204 379 621 520 1337 22
115 43 213 45 216 2 4 30 27 60 50 64 50 59 52 106 -48 16 -35 34 -60 39 -57
17 11 11 40 -21 103 -36 72 -110 143 -167 160 -76 23 -182 10 -182 -22 0 -12
16 -15 83 -13 70 1 88 -2 125 -23 l44 -25 -39 -32 c-116 -100 -316 -216 -452
-262 -383 -131 -797 -92 -1231 115 -127 61 -300 162 -300 175 0 3 19 16 42 29
35 19 54 23 125 22 67 -1 83 2 83 14 0 32 -114 45 -188 21z"/>
</g>
</svg>
