<?xml version="1.0" standalone="no"?>
<!DOCTYPE svg PUBLIC "-//W3C//DTD SVG 20010904//EN"
 "http://www.w3.org/TR/2001/REC-SVG-20010904/DTD/svg10.dtd">
<svg version="1.0" xmlns="http://www.w3.org/2000/svg"
 width="512.000000pt" height="512.000000pt" viewBox="0 0 512.000000 512.000000"
 preserveAspectRatio="xMidYMid meet">

<g transform="translate(0.000000,512.000000) scale(0.100000,-0.100000)"
fill="#000000" stroke="none">
<path d="M446 3032 c-238 -1 -354 -6 -363 -13 -10 -9 -13 -49 -13 -164 0 -85
3 -160 6 -169 3 -9 15 -16 25 -16 18 0 19 -13 19 -343 0 -261 3 -347 13 -360
11 -15 27 -17 122 -15 l110 3 31 48 c17 26 34 50 37 53 3 3 18 -14 32 -38 37
-59 51 -68 110 -68 58 0 70 8 108 68 15 23 29 42 31 42 3 0 19 -22 37 -50 l32
-50 69 0 68 0 32 50 c18 27 35 49 38 49 3 0 22 -22 43 -50 l37 -49 103 0 c56
0 108 4 115 9 11 7 13 77 12 360 -1 319 1 351 16 351 9 0 226 -52 483 -116
l466 -116 905 6 c1165 8 1853 16 1862 22 5 3 8 79 8 168 0 134 -3 166 -15 176
-12 10 -131 11 -568 6 -303 -3 -916 -9 -1362 -12 l-810 -7 -469 117 -469 117
-276 -3 c-152 -2 -433 -4 -625 -6z m1272 -162 c641 -159 539 -143 837 -136
143 3 745 9 1338 12 l1077 7 0 -101 c0 -55 -3 -103 -7 -105 -5 -3 -501 -7
-1103 -11 -602 -3 -1199 -9 -1326 -12 l-230 -6 -325 80 c-178 45 -389 97 -469
117 l-145 37 -610 -4 -610 -3 -3 102 -3 103 213 2 c117 2 390 4 606 6 l393 2
367 -90z m-498 -199 c6 -1 10 -115 10 -319 l0 -318 -62 0 -63 1 -43 65 c-69
102 -81 102 -144 -1 -56 -91 -74 -91 -138 4 -59 87 -74 88 -129 6 -23 -34 -41
-65 -41 -70 0 -5 -13 -9 -30 -9 -26 0 -36 9 -76 70 -59 88 -77 91 -125 18 -19
-29 -37 -60 -41 -70 -6 -15 -19 -18 -71 -18 l-64 0 -6 143 c-4 78 -7 222 -7
320 l0 177 98 0 99 0 7 -132 c7 -142 18 -174 54 -152 14 10 17 31 20 148 l3
136 74 0 75 0 1 -42 c8 -270 14 -333 32 -336 43 -8 47 11 47 199 l0 179 218 2
c200 3 276 3 302 -1z"/>
</g>
</svg>
